# AST/ASF file generated using VICON BodyLanguage
# -----------------------------------------------
:version 1.10
:name VICON
:units
  mass 1.0
  length 0.45
  angle deg
:documentation
   .ast/.asf automatically generated from VICON data using
   VICON BodyBuilder and BodyLanguage model FoxedUp or BRILLIANT.MOD
:root
   order TX TY TZ RX RY RZ
   axis XYZ
   position 0 0 0  
   orientation 0 0 0 
:bonedata
  begin
     id 1 
     name lhipjoint
     direction 0.710188 -0.616876 0.339259 
     length 2.5669 
     axis 0 0 0  XYZ
  end
  begin
     id 2 
     name lfemur
     direction 0.34202 -0.939693 0  
     length 7.12796  
     axis 0 0 20  XYZ
    dof rx ry rz
    limits (-160.0 20.0)
           (-70.0 70.0)
           (-60.0 70.0)
  end
  begin
     id 3 
     name ltibia
     direction 0.34202 -0.939693 0   
     length 7.58108   
     axis 0 0 20   XYZ
    dof rx
    limits (-10.0 170.0)
  end
  begin
     id 4 
     name lfoot
     direction 0.0669471 -0.183936 0.980656   
     length 2.17365   
     axis -90 7.62852e-016 20   XYZ
    dof rx rz
    limits (-45.0 90.0)
           (-70.0 20.0)
  end
  begin
     id 5 
     name ltoes
     direction 1.53508e-011 -4.21705e-011 1   
     length 1.09427   
     axis -90 7.62852e-016 20   XYZ
    dof rx
    limits (-90.0 20.0)
  end
  begin
     id 6 
     name rhipjoint
     direction -0.700191 -0.625589 0.34405   
     length 2.53115  
     axis 0 0 0  XYZ 
  end
  begin
     id 7 
     name rfemur
     direction -0.34202 -0.939693 0   
     length 7.33006   
     axis 0 0 -20   XYZ
    dof rx ry rz
    limits (-160.0 20.0)
           (-70.0 70.0)
           (-70.0 60.0)
  end
  begin
     id 8 
     name rtibia
     direction -0.34202 -0.939693 0   
     length 7.64926   
     axis 0 0 -20   XYZ
    dof rx
    limits (-10.0 170.0)
 end
 begin
     id 9 
     name rfoot
     direction -0.0688927 -0.189281 0.979503   
     length 2.20493  
     axis -90 -7.62852e-016 -20   XYZ
    dof rx rz
    limits (-45.0 90.0)
           (-20.0 70.0)
  end
  begin
     id 10 
     name rtoes
     direction -1.53567e-011 -4.21933e-011 1   
     length 1.10919   
     axis -90 -7.62852e-016 -20   XYZ
    dof rx
    limits (-90.0 20.0)
  end
  begin
     id 11 
     name lowerback
     direction -0.0167868 0.989873 -0.140959   
     length 2.14596   
     axis 0 0 0   XYZ
    dof rx ry rz
    limits (-20.0 45.0)
           (-30.0 30.0)
           (-30.0 30.0)
  end
  begin
     id 12 
     name upperback
     direction 0.0129109 0.998033 0.0613525   
     length 2.10457   
     axis 0 0 0   XYZ
    dof rx ry rz
    limits (-20.0 45.0)
           (-30.0 30.0)
           (-30.0 30.0)
  end
  begin
     id 13 
     name thorax
     direction 0.0177047 0.991119 0.131797   
     length 2.17652   
     axis 0 0 0   XYZ
    dof rx ry rz
    limits (-20.0 45.0)
           (-30.0 30.0)
           (-30.0 30.0)
  end
  begin
     id 14 
     name lowerneck
     direction -0.0336893 0.997548 0.0613464   
     length 1.8912   
     axis 0 0 0   XYZ
    dof rx ry rz
    limits (-20.0 45.0)
           (-30.0 30.0)
           (-30.0 30.0)
  end
  begin
     id 15 
     name upperneck
     direction 0.0435909 0.997179 -0.0611028   
     length 1.8829   
     axis 0 0 0   XYZ
    dof rx ry rz
    limits (-20.0 45.0)
           (-30.0 30.0)
           (-30.0 30.0)
  end
  begin
     id 16
     name head
     direction 0.0175076 0.999444 -0.0283782  
     length 1.93197  
     axis 0 0 0   XYZ
    dof rx ry rz
    limits (-20.0 45.0)
           (-30.0 30.0)
           (-30.0 30.0)
  end
  begin
     id 17 
     name lclavicle
     direction 0.919164 0.389875 0.0559876  
     length 3.60004  
     axis 0 0 0   XYZ
    dof ry rz
    limits (-20.0 10.0)
           (0.0 20.0)
  end
  begin
     id 18 
     name lhumerus
     direction 1 -4.48958e-011 6.89191e-027   
     length 5.43301   
     axis 180 -30 -90   XYZ
    dof rx ry rz
    limits (-60.0 90.0)
           (-90.0 90.0)
           (-90.0 90.0)
  end
  begin
     id 19
     name lradius
     direction 1 -4.4897e-011 3.24727e-027   
     length 3.15936   
     axis 180 -30 -90   XYZ
    dof rx
    limits (-10.0 170.0)
  end
  begin
     id 20
     name lwrist
     direction 1 -4.4897e-011 9.00228e-027   
     length 1.57968   
     axis -6.29373e-015 90 90   XYZ
    dof ry
    limits (-180.0 0.0)
 end
  begin
     id 21 
     name lhand
     direction 1 -4.48968e-011 1.80042e-026   
     length 0.712827   
     axis -1.14882e-014 90 90   XYZ
    dof rx rz
    limits (-90.0 90.0)
           (-45.0 45.0)
  end
  begin
     id 22 
     name lfingers
     direction 1 -4.49019e-011 3.60267e-026   
     length 0.574699   
     axis -2.29769e-014 90 90   XYZ
    dof rx
    limits (0.0 90.0)
  end
  begin
     id 23
     name lthumb
     direction 0.707107 -6.3498e-011 0.707107   
     length 0.825157   
     axis -90 45 5.37419e-014   XYZ
    dof rx rz
    limits (-45.0 45.0)
           (-45.0 45.0)
  end
  begin
     id 24 
     name rclavicle
     direction -0.890334 0.455305 -0.00132111   
     length 3.51494  
     axis 0 0 0   XYZ 
    dof ry rz
    limits (-10.0 20.0)
           (-20.0 0.0)
  end
  begin
     id 25 
     name rhumerus
     direction -1 -4.48967e-011 5.07175e-028  
     length 5.34194   
     axis 180 30 90   XYZ
    dof rx ry rz
    limits (-90.0 60.0)
           (-90.0 90.0)
           (-90.0 90.0)
  end
  begin
     id 26 
     name rradius
     direction -1 -4.48955e-011 3.30467e-027   
     length 3.19351   
     axis 180 30 90   XYZ
    dof rx
    limits (-10.0 170.0)
  end
  begin
     id 27 
     name rwrist
     direction -1 -4.48968e-011 9.00208e-027   
     length 1.59676   
     axis -6.29373e-015 -90 -90   XYZ
    dof ry
    limits (-180.0 0.0)
  end
  begin
     id 28
     name rhand
     direction -1 -4.49e-011 1.80099e-026   
     length 0.743862   
     axis -1.14882e-014 -90 -90   XYZ
    dof rx rz
    limits (-90.0 90.0)
           (-45.0 45.0)
  end
  begin
     id 29
     name rfingers
     direction -1 -4.49009e-011 3.6023e-026   
     length 0.599721   
     axis -2.29769e-014 -90 -90   XYZ
    dof rx
    limits (0.0 90.0)
  end
  begin
     id 30
     name rthumb
     direction -0.707107 -6.35025e-011 0.707107   
     length 0.861083   
     axis -90 -45 -5.37419e-014   XYZ
    dof rx rz
    limits (-45.0 45.0)
           (-45.0 45.0)
  end
:hierarchy
  begin
    root lhipjoint rhipjoint lowerback
    lhipjoint lfemur
    lfemur ltibia
    ltibia lfoot
    lfoot ltoes
    rhipjoint rfemur
    rfemur rtibia
    rtibia rfoot
    rfoot rtoes
    lowerback upperback
    upperback thorax
    thorax lowerneck lclavicle rclavicle
    lowerneck upperneck
    upperneck head
    lclavicle lhumerus
    lhumerus lradius
    lradius lwrist
    lwrist lhand lthumb
    lhand lfingers
    rclavicle rhumerus
    rhumerus rradius
    rradius rwrist
    rwrist rhand rthumb
    rhand rfingers
  end

#!OML:ASF H:\Martial Arts Walks\Project 1\Capture day 1\Session 1\male.ASF
:FULLY-SPECIFIED
:DEGREES
77
root 0.0655984 13.5614 -35.3716 18.7616 -26.2673 -15.0373
lowerback 11.7348 3.33009 2.13408
upperback -2.00042 5.0798 3.74911
thorax -8.9013 2.45255 1.82441
lowerneck -3.03747 4.24736 -0.83468
upperneck -1.33558 5.69749 2.19503
head 0.000233301 2.86031 0.849426
rclavicle -5.75482e-014 1.31198e-014
rhumerus -26.8927 17.0021 -77.8701
rradius 63.78
rwrist -40.7264
rhand -9.56883 -49.089
rfingers 7.12502
rthumb 16.3988 -78.4158
lclavicle -5.75482e-014 1.31198e-014
lhumerus 12.9031 -6.86646 68.33
lradius 27.3293
lwrist -37.6286
lhand -6.75765 12.3856
lfingers 7.12502
lthumb 19.1039 41.4674
rfemur 12.8783 -2.34935 10.4096
rtibia 23.2635
rfoot -16.448 -32.2973
rtoes -26.8786
lfemur -81.0758 32.4135 -14.0668
ltibia 85.5298
lfoot -10.0806 20.5761
ltoes 4.39606
78
root 0.0801753 13.585 -35.2722 18.874 -25.9985 -14.4494
lowerback 11.5794 3.52093 1.46327
upperback -2.07095 5.21893 3.5391
thorax -8.93066 2.55051 1.95418
lowerneck -2.98757 3.96121 -0.9842
upperneck -1.59314 5.32573 2.36808
head -0.0889042 2.67402 0.920127
rclavicle -4.7112e-014 1.94809e-014
rhumerus -25.0861 16.4946 -77.7388
rradius 63.0173
rwrist -40.84
rhand -10.3939 -51.1345
rfingers 7.12502
rthumb 15.6043 -80.5251
lclavicle -4.7112e-014 1.94809e-014
lhumerus 13.2643 -7.27902 68.5275
lradius 27.4015
lwrist -36.8201
lhand -5.76675 12.6009
lfingers 7.12502
lthumb 20.0566 41.5857
rfemur 13.0922 -1.62028 10.3031
rtibia 22.7999
rfoot -15.7586 -32.877
rtoes -26.3133
lfemur -81.2654 32.1024 -15.0811
ltibia 85.5468
lfoot -10.0868 20.8022
ltoes 4.75855
79
root 0.0959086 13.6102 -35.1679 18.9291 -25.6826 -13.8858
lowerback 11.461 3.69907 0.846337
upperback -2.12069 5.35145 3.34207
thorax -8.95758 2.64268 2.0677
lowerneck -2.93376 3.66638 -1.13951
upperneck -1.81936 4.94231 2.54112
head -0.168029 2.48194 0.993369
rclavicle -2.36554e-014 5.68524e-014
rhumerus -23.3274 16.0224 -77.6622
rradius 62.46
rwrist -40.9646
rhand -11.2016 -52.8475
rfingers 7.12502
rthumb 14.8262 -82.2971
lclavicle -2.36554e-014 5.68524e-014
lhumerus 13.6503 -7.59009 68.8434
lradius 27.4062
lwrist -36.0715
lhand -4.81577 12.8661
lfingers 7.12502
lthumb 20.9704 41.7524
rfemur 13.2752 -0.870321 10.2412
rtibia 22.5817
rfoot -14.9929 -33.4785
rtoes -25.6909
lfemur -81.3439 31.7525 -16.0224
ltibia 85.5385
lfoot -10.1657 20.8847
ltoes 4.86499
80
root 0.113005 13.6363 -35.0583 18.9337 -25.3085 -13.3964
lowerback 11.3859 3.85988 0.336345
upperback -2.14503 5.47936 3.17505
thorax -8.977 2.72751 2.15265
lowerneck -2.87718 3.36567 -1.30401
upperneck -2.01192 4.55079 2.71021
head -0.236219 2.28593 1.06846
rclavicle -2.18663e-015 -3.10104e-014
rhumerus -21.6034 15.6159 -77.6385
rradius 62.0858
rwrist -41.059
rhand -11.8626 -54.0073
rfingers 7.12502
rthumb 14.1894 -83.5027
lclavicle -2.18663e-015 -3.10104e-014
lhumerus 14.0433 -7.78424 69.2916
lradius 27.348
lwrist -35.4074
lhand -3.91584 13.1329
lfingers 7.12502
lthumb 21.8348 41.921
rfemur 13.4197 -0.146103 10.2578
rtibia 22.6394
rfoot -14.1928 -34.0639
rtoes -24.9836
lfemur -81.3008 31.3825 -16.8312
ltibia 85.5292
lfoot -10.3262 20.9003
ltoes 4.76432
81
root 0.131784 13.6627 -34.9436 18.8992 -24.857 -13.0037
lowerback 11.3518 3.99401 -0.0326931
upperback -2.14439 5.59489 3.04531
thorax -8.98422 2.7995 2.19937
lowerneck -2.82749 3.06398 -1.4743
upperneck -2.16692 4.1574 2.87186
head -0.290577 2.08922 1.14381
rclavicle -5.35725e-014 1.19271e-015
rhumerus -19.9021 15.3034 -77.6671
rradius 61.8979
rwrist -41.0942
rhand -12.3734 -54.6495
rfingers 7.12502
rthumb 13.6971 -84.1788
lclavicle -5.35725e-014 1.19271e-015
lhumerus 14.4282 -7.87526 69.8607
lradius 27.2493
lwrist -34.8337
lhand -3.06436 13.3645
lfingers 7.12502
lthumb 22.6522 42.0552
rfemur 13.5046 0.482478 10.3654
rtibia 22.9992
rfoot -13.3267 -34.6115
rtoes -24.2557
lfemur -81.1496 30.9905 -17.4848
ltibia 85.5329
lfoot -10.5742 20.9035
ltoes 4.50993
82
root 0.152572 13.6896 -34.825 18.8406 -24.3104 -12.7004
lowerback 11.3542 4.09408 -0.257541
upperback -2.12563 5.68812 2.95009
thorax -8.98187 2.85362 2.20511
lowerneck -2.80085 2.76324 -1.64569
upperneck -2.28041 3.76455 3.0293
head -0.327175 1.89314 1.21971
rclavicle 3.40916e-014 3.85642e-014
rhumerus -18.2139 15.0948 -77.7476
rradius 61.9149
rwrist -41.0791
rhand -12.6171 -54.6852
rfingers 7.12502
rthumb 13.4623 -84.2301
lclavicle 3.40916e-014 3.85642e-014
lhumerus 14.8005 -7.88868 70.5346
lradius 27.1275
lwrist -34.3523
lhand -2.25184 13.5179
lfingers 7.12502
lthumb 23.4318 42.1112
rfemur 13.4927 0.952094 10.5536
rtibia 23.6859
rfoot -12.4254 -35.0894
rtoes -23.4454
lfemur -80.9169 30.5567 -17.9976
ltibia 85.5465
lfoot -10.9095 20.914
ltoes 4.19431
83
root 0.175135 13.7175 -34.703 18.767 -23.6824 -12.4609
lowerback 11.3789 4.16081 -0.366512
upperback -2.09568 5.75508 2.87998
thorax -8.97024 2.88935 2.17712
lowerneck -2.80034 2.46596 -1.81517
upperneck -2.35647 3.37567 3.18431
head -0.346747 1.69944 1.29588
rclavicle 2.34566e-014 -3.49861e-014
rhumerus -16.5319 15.0029 -77.8844
rradius 62.1689
rwrist -41.0464
rhand -12.7023 -54.3851
rfingers 7.12502
rthumb 13.3802 -83.9355
lclavicle 2.34566e-014 -3.49861e-014
lhumerus 15.1499 -7.85863 71.2881
lradius 27.0055
lwrist -33.9573
lhand -1.46265 13.568
lfingers 7.12502
lthumb 24.1887 42.0626
rfemur 13.3348 1.2485 10.7896
rtibia 24.7283
rfoot -11.4882 -35.484
rtoes -22.4772
lfemur -80.6189 30.0831 -18.4074
ltibia 85.5579
lfoot -11.3162 20.9191
ltoes 3.84264
84
root 0.198928 13.747 -34.5788 18.6797 -22.9966 -12.2437
lowerback 11.4194 4.19964 -0.413123
upperback -2.06275 5.79453 2.82125
thorax -8.95786 2.90864 2.13104
lowerneck -2.81301 2.17516 -1.97924
upperneck -2.41123 2.99499 3.34009
head -0.356484 1.51001 1.37216
rclavicle -4.14466e-014 -4.13472e-014
rhumerus -14.8737 15.0471 -78.0736
rradius 62.7126
rwrist -41.046
rhand -12.6324 -53.8689
rfingers 7.12502
rthumb 13.4475 -83.4148
lclavicle -4.14466e-014 -4.13472e-014
lhumerus 15.4691 -7.83894 72.0885
lradius 26.9038
lwrist -33.6513
lhand -0.678369 13.5275
lfingers 7.12502
lthumb 24.9405 41.92
rfemur 12.9834 1.38798 11.0301
rtibia 26.1594
rfoot -10.5148 -35.7844
rtoes -21.2187
lfemur -80.2647 29.5755 -18.7674
ltibia 85.5476
lfoot -11.781 20.8904
ltoes 3.49872
85
root 0.223837 13.7786 -34.4535 18.5871 -22.2601 -12.011
lowerback 11.467 4.20659 -0.435957
upperback -2.03559 5.79495 2.76274
thorax -8.95143 2.90777 2.07901
lowerneck -2.82953 1.89629 -2.14258
upperneck -2.45724 2.63017 3.50106
head -0.362183 1.3286 1.45045
rclavicle -1.89839e-014 -9.54166e-015
rhumerus -13.2231 15.2513 -78.3205
rradius 63.5581
rwrist -41.1212
rhand -12.4725 -53.2652
rfingers 7.12502
rthumb 13.6017 -82.8008
lclavicle -1.89839e-014 -9.54166e-015
lhumerus 15.7559 -7.8605 72.9005
lradius 26.8352
lwrist -33.4213
lhand 0.139461 13.3593
lfingers 7.12502
lthumb 25.7239 41.6408
rfemur 12.389 1.39405 11.2457
rtibia 28.0058
rfoot -9.53613 -35.9608
rtoes -19.5049
lfemur -79.8727 29.0224 -19.125
ltibia 85.494
lfoot -12.2634 20.8116
ltoes 3.10809
86
root 0.249045 13.8131 -34.3274 18.4857 -21.5048 -11.7352
lowerback 11.5225 4.18992 -0.483095
upperback -2.01625 5.75983 2.6957
thorax -8.9578 2.89073 2.03767
lowerneck -2.85263 1.63328 -2.29944
upperneck -2.50164 2.28652 3.66527
head -0.365707 1.1578 1.52908
rclavicle 1.32192e-014 -3.69739e-014
rhumerus -11.5771 15.6614 -78.6173
rradius 64.711
rwrist -41.2862
rhand -12.3634 -52.767
rfingers 7.12502
rthumb 13.7067 -82.2955
lclavicle 1.32192e-014 -3.69739e-014
lhumerus 16.0172 -7.98652 73.6773
lradius 26.8017
lwrist -33.22
lhand 0.996076 13.0882
lfingers 7.12502
lthumb 26.5441 41.2484
rfemur 11.5075 1.31839 11.412
rtibia 30.2857
rfoot -8.23392 -36.0207
rtoes -17.4045
lfemur -79.4341 28.4485 -19.5149
ltibia 85.3847
lfoot -12.7566 20.6877
ltoes 2.66136
